<?xml version="1.0" encoding="UTF-8" standalone="no"?>
<svg
   xmlns:dc="http://purl.org/dc/elements/1.1/"
   xmlns:cc="http://creativecommons.org/ns#"
   xmlns:rdf="http://www.w3.org/1999/02/22-rdf-syntax-ns#"
   xmlns:svg="http://www.w3.org/2000/svg"
   xmlns="http://www.w3.org/2000/svg"
   xmlns:sodipodi="http://sodipodi.sourceforge.net/DTD/sodipodi-0.dtd"
   xmlns:inkscape="http://www.inkscape.org/namespaces/inkscape"
   version="1.1"
   id="svg10"
   width="260"
   height="260"
   viewBox="0 0 260.00001 260"
   sodipodi:docname="soceio.svg"
   inkscape:version="1.0 (4035a4f, 2020-05-01)"
   inkscape:export-filename="/Volumes/Macintosh HD/Users/emilio.lcano/academico/gh_repos/soceio/soceio_logo/img/soceio_500l.png"
   inkscape:export-xdpi="214.21001"
   inkscape:export-ydpi="214.21001">
  <metadata
     id="metadata16">
    <rdf:RDF>
      <cc:Work
         rdf:about="">
        <dc:format>image/svg+xml</dc:format>
        <dc:type
           rdf:resource="http://purl.org/dc/dcmitype/StillImage" />
        <dc:title></dc:title>
      </cc:Work>
    </rdf:RDF>
  </metadata>
  <defs
     id="defs14">
    <rect
       x="0"
       y="0.48525581"
       width="224.18819"
       height="258.15607"
       id="rect953" />
    <clipPath
       clipPathUnits="userSpaceOnUse"
       id="clipPath6007">
      <path
         sodipodi:type="star"
         style="fill-rule:evenodd;stroke-width:1.04805"
         id="path6009"
         sodipodi:sides="6"
         sodipodi:cx="112.30537"
         sodipodi:cy="168.16"
         sodipodi:r1="128.88541"
         sodipodi:r2="111.61803"
         sodipodi:arg1="-0.52359878"
         sodipodi:arg2="0"
         inkscape:flatsided="true"
         inkscape:rounded="0"
         inkscape:randomized="0"
         d="m 223.9234,103.7173 0,128.88541 -111.61803,64.4427 L 0.6873306,232.60271 0.68733003,103.7173 112.30537,39.274597 Z"
         inkscape:label="path852" />
    </clipPath>
    <filter
       inkscape:collect="always"
       style="color-interpolation-filters:sRGB"
       id="filter3428"
       x="-1.2928203"
       width="3.5856407"
       y="-1.1196152"
       height="3.2392304">
      <feGaussianBlur
         inkscape:collect="always"
         stdDeviation="115.55692"
         id="feGaussianBlur3430" />
    </filter>
  </defs>
  <sodipodi:namedview
     pagecolor="#ffffff"
     bordercolor="#666666"
     borderopacity="1"
     objecttolerance="10"
     gridtolerance="10"
     guidetolerance="10"
     inkscape:pageopacity="0"
     inkscape:pageshadow="2"
     inkscape:window-width="1440"
     inkscape:window-height="777"
     id="namedview12"
     showgrid="false"
     inkscape:zoom="1.2718982"
     inkscape:cx="154.95617"
     inkscape:cy="130.26684"
     inkscape:window-x="0"
     inkscape:window-y="25"
     inkscape:window-maximized="0"
     inkscape:current-layer="svg10"
     fit-margin-top="0"
     fit-margin-left="0"
     fit-margin-right="0"
     fit-margin-bottom="0"
     inkscape:document-rotation="0" />
  <path
     d="m 237.29929,67.444709 0,123.853531 -107.2603,61.92677 -107.260308,-61.92677 0,-123.85353 L 130.03899,5.5179443 Z"
     inkscape:randomized="0"
     inkscape:rounded="0"
     inkscape:flatsided="true"
     sodipodi:arg2="0"
     sodipodi:arg1="-0.52359878"
     sodipodi:r2="107.26032"
     sodipodi:r1="123.85353"
     sodipodi:cy="129.37148"
     sodipodi:cx="130.03899"
     sodipodi:sides="6"
     id="path6000-9"
     style="display:inline;fill:#111111;fill-opacity:1;fill-rule:evenodd;stroke:#0000fe;stroke-width:9.55736;stroke-miterlimit:4;stroke-dasharray:none;stroke-opacity:1"
     sodipodi:type="star" />
  <text
     inkscape:export-ydpi="300.15891"
     inkscape:export-xdpi="300.15891"
     inkscape:export-filename="/Volumes/Macintosh HD/Users/emilio.lcano/academico/gh_repos/soceio/soceio_logo/img/text997.png"
     xml:space="preserve"
     style="font-style:normal;font-variant:normal;font-weight:normal;font-stretch:normal;font-size:13.3333px;line-height:1.25;font-family:monospace;-inkscape-font-specification:'monospace, Normal';font-variant-ligatures:normal;font-variant-caps:normal;font-variant-numeric:normal;font-variant-east-asian:normal;text-align:start;text-anchor:start;fill:#00ee00;fill-opacity:1;stroke:none"
     x="25.3008"
     y="30.901161"
     id="text997"><tspan
       y="30.901161"
       x="25.3008"
       id="tspan873"
       sodipodi:role="line">        10110 0010   </tspan><tspan
       y="47.567787"
       x="25.3008"
       id="tspan875"
       sodipodi:role="line">     01001011101 0110</tspan><tspan
       y="64.234413"
       x="25.3008"
       id="tspan877"
       sodipodi:role="line"> 11110 10110 10 011101 01</tspan><tspan
       y="80.901031"
       x="25.3008"
       id="tspan879"
       sodipodi:role="line">0101001011 00010 0101011 00</tspan><tspan
       y="97.567657"
       x="25.3008"
       id="tspan881"
       sodipodi:role="line">10001011 001100111010101001</tspan><tspan
       y="114.23428"
       x="25.3008"
       id="tspan883"
       sodipodi:role="line"></tspan><tspan
       y="130.90091"
       x="25.3008"
       id="tspan885"
       sodipodi:role="line"></tspan><tspan
       y="147.56754"
       x="25.3008"
       id="tspan888"
       sodipodi:role="line"></tspan><tspan
       y="164.23416"
       x="25.3008"
       id="tspan890"
       sodipodi:role="line">soceio &lt;- function(SEIO){</tspan><tspan
       y="180.90079"
       x="25.3008"
       id="tspan892"
       sodipodi:role="line">   TRUE} ##-------------</tspan><tspan
       y="197.56741"
       x="25.3008"
       id="tspan894"
       sodipodi:role="line">0100101010001010100 101101</tspan><tspan
       y="214.23402"
       x="25.3008"
       id="tspan896"
       sodipodi:role="line">    011110100110001 001</tspan><tspan
       y="230.90065"
       x="25.3008"
       id="tspan898"
       sodipodi:role="line">        00 01110110</tspan><tspan
       y="247.56728"
       x="25.3008"
       id="tspan900"
       sodipodi:role="line">           0011 </tspan></text>
  <path
     sodipodi:type="star"
     style="display:inline;fill:none;fill-opacity:1;fill-rule:evenodd;stroke:#0000fe;stroke-width:9.55736;stroke-miterlimit:4;stroke-dasharray:none;stroke-opacity:1"
     id="path6000"
     sodipodi:sides="6"
     sodipodi:cx="130.03899"
     sodipodi:cy="129.37148"
     sodipodi:r1="123.85353"
     sodipodi:r2="107.26032"
     sodipodi:arg1="-0.52359878"
     sodipodi:arg2="0"
     inkscape:flatsided="true"
     inkscape:rounded="0"
     inkscape:randomized="0"
     d="m 237.29929,67.444709 0,123.853531 -107.2603,61.92677 -107.260308,-61.92677 0,-123.85353 L 130.03899,5.5179443 Z" />
  <text
     xml:space="preserve"
     style="font-style:normal;font-variant:normal;font-weight:normal;font-stretch:normal;font-size:40px;line-height:1.25;font-family:monospace;-inkscape-font-specification:monospace;fill:#000000;fill-opacity:1;stroke:none"
     x="49.974274"
     y="112.42567"
     id="text889"><tspan
       sodipodi:role="line"
       id="tspan887"
       x="49.974274"
       y="112.42567" /></text>
  <rect
     style="fill:#e6e6e6;fill-opacity:1;stroke:none;stroke-width:0.98526;stroke-opacity:1"
     id="rect891"
     width="205.25549"
     height="48.477123"
     x="27.744549"
     y="103.37103" />
  <text
     xml:space="preserve"
     style="font-style:normal;font-variant:normal;font-weight:normal;font-stretch:normal;font-size:40px;line-height:1.25;font-family:monospace;-inkscape-font-specification:monospace;fill:#000000;fill-opacity:1;stroke:none"
     x="33.899406"
     y="147.98267"
     id="text895"><tspan
       style="font-style:normal;font-variant:normal;font-weight:normal;font-stretch:normal;font-size:37.3333px;font-family:'Press Start 2P';-inkscape-font-specification:'Press Start 2P, Normal';font-variant-ligatures:normal;font-variant-caps:normal;font-variant-numeric:normal;font-variant-east-asian:normal"
       sodipodi:role="line"
       id="tspan893"
       x="33.899406"
       y="147.98267">S</tspan></text>
  <path
     style="fill:#000000;stroke-width:0.127478"
     d="m 82.741215,144.73304 c -1.988672,-0.38114 -3.078765,-0.82117 -4.455316,-1.79844 -3.094071,-2.19663 -4.781946,-6.07678 -4.779685,-10.98773 0.0021,-4.65166 1.567395,-9.2117 4.50602,-13.12736 1.261099,-1.68039 3.452494,-3.96668 4.922019,-5.13516 3.306422,-2.62907 6.72911,-4.30918 6.863266,-3.36901 0.05441,0.38131 -0.567837,0.96091 -2.078226,1.93579 -5.386504,3.47673 -8.346874,7.59404 -9.694891,13.48375 -0.460395,2.01153 -0.57521,5.10479 -0.257508,6.93754 0.504444,2.91002 1.426847,4.88022 3.125583,6.67606 1.290441,1.36422 2.740962,2.1803 4.711081,2.65053 1.57757,0.37653 4.301602,0.28597 5.91256,-0.19657 1.500305,-0.4494 2.515262,-0.92344 3.827632,-1.7877 3.31512,-2.18317 6.1392,-6.06696 7.52113,-10.34335 0.88139,-2.72748 1.03737,-3.75017 1.03939,-6.8148 0.002,-2.43068 -0.0309,-2.8706 -0.28742,-3.88809 -0.7926,-3.14404 -2.72189,-5.37689 -5.28519,-6.11675 -0.95621,-0.276 -2.82763,-0.28027 -3.6464,-0.008 -0.33667,0.11183 -0.951806,0.47663 -1.366961,0.81067 -1.353074,1.08871 -3.409392,4.07214 -4.302094,6.24174 -0.259809,0.63143 -0.590422,1.17058 -0.924004,1.50683 -0.851557,0.85837 -2.752057,1.63778 -3.240926,1.32914 -0.167979,-0.10606 -0.162707,-0.20174 0.04378,-0.79464 1.103953,-3.16977 4.114978,-7.1368 6.94987,-9.15646 1.196594,-0.85249 3.184175,-1.86917 4.446935,-2.27467 3.75842,-1.20694 7.58419,-0.26862 9.55484,2.34344 1.55154,2.05656 2.20605,4.41744 2.20463,7.95229 -0.003,6.37883 -2.53441,12.15731 -7.41168,16.91586 -3.63494,3.54647 -7.916661,5.90361 -12.389495,6.82057 -1.651016,0.33848 -4.275239,0.43129 -5.508944,0.19484 z"
     id="path949" />
  <path
     d="m 365.79638,-11.496514 0,123.853534 -107.26031,61.92676 -107.2603,-61.92676 0,-123.853533 107.2603,-61.926766 z"
     inkscape:randomized="0"
     inkscape:rounded="0"
     inkscape:flatsided="true"
     sodipodi:arg2="0"
     sodipodi:arg1="-0.52359878"
     sodipodi:r2="107.26032"
     sodipodi:r1="123.85353"
     sodipodi:cy="50.430252"
     sodipodi:cx="258.53607"
     sodipodi:sides="6"
     id="path6000-1"
     style="display:inline;fill:none;fill-opacity:1;fill-rule:evenodd;stroke:#0000fe;stroke-width:9.55736;stroke-miterlimit:4;stroke-dasharray:none;stroke-opacity:1;filter:url(#filter3428)"
     sodipodi:type="star" />
  <text
     xml:space="preserve"
     style="font-style:normal;font-variant:normal;font-weight:normal;font-stretch:normal;font-size:8px;line-height:1.25;font-family:monospace;-inkscape-font-specification:monospace;font-variant-ligatures:normal;font-variant-caps:normal;font-variant-numeric:normal;font-variant-east-asian:normal;text-align:start;letter-spacing:0px;word-spacing:0px;writing-mode:lr-tb;text-anchor:start;display:inline;fill:#eeeeee;fill-opacity:1;stroke:none"
     x="-11.52262"
     y="286.31723"
     id="text858"
     transform="rotate(-30.061794)"
     inkscape:transform-center-x="0.029542098"
     inkscape:transform-center-y="9.1073703"
     inkscape:label="text858"><tspan
       sodipodi:role="line"
       id="tspan843"
       x="-11.52262"
       y="286.31723">soceio.seio.es</tspan></text>
  <text
     id="text895-2"
     y="147.8168"
     x="114.26635"
     style="font-style:normal;font-variant:normal;font-weight:normal;font-stretch:normal;font-size:40px;line-height:1.25;font-family:monospace;-inkscape-font-specification:monospace;fill:#000000;fill-opacity:1;stroke:none"
     xml:space="preserve"><tspan
       style="font-style:normal;font-variant:normal;font-weight:normal;font-stretch:normal;font-size:37.3333px;font-family:'Press Start 2P';-inkscape-font-specification:'Press Start 2P, Normal';font-variant-ligatures:normal;font-variant-caps:normal;font-variant-numeric:normal;font-variant-east-asian:normal"
       y="147.8168"
       x="114.26635"
       id="tspan893-0"
       sodipodi:role="line">C</tspan></text>
  <path
     style="fill:#000000;stroke-width:0.0713622"
     d="m 164.1708,144.11821 c -3.08947,-0.37379 -5.622,-1.4465 -7.434,-3.14884 -1.47832,-1.38884 -2.33645,-2.9121 -2.66172,-4.72475 -0.70361,-3.92102 1.8646,-8.50717 6.2233,-11.1132 0.31826,-0.19029 0.59178,-0.35604 0.60782,-0.36835 0.016,-0.0123 -0.0654,-0.093 -0.18098,-0.17938 -0.11557,-0.0864 -0.41754,-0.34797 -0.67105,-0.58136 -2.23301,-2.05584 -2.77695,-4.75604 -1.48929,-7.39301 0.67056,-1.37322 1.92839,-2.77738 3.5066,-3.91452 1.02574,-0.73907 1.56262,-1.06014 2.69855,-1.61384 3.27549,-1.59661 7.05235,-2.40637 10.68294,-2.29043 2.32515,0.0742 4.48203,0.59143 6.41722,1.53873 2.07438,1.01544 3.17474,2.06129 3.04606,2.89517 -0.13337,0.86428 -0.98065,1.65598 -1.89891,1.77436 -0.45406,0.0585 -0.73821,-0.0535 -1.50638,-0.59393 -1.58131,-1.11252 -3.35532,-1.82542 -5.19869,-2.08915 -1.10823,-0.15856 -4.18301,-0.10284 -5.66256,0.10262 -5.70059,0.79161 -9.68029,2.94362 -10.68507,5.77794 -0.13151,0.37095 -0.16195,0.60998 -0.16126,1.26629 5.2e-4,0.70738 0.0257,0.87367 0.19853,1.32376 0.28633,0.74563 0.63573,1.2849 1.16699,1.80118 0.4498,0.43712 1.49294,1.16635 1.66842,1.16635 0.0466,0 0.2599,-0.0751 0.47389,-0.16693 1.09223,-0.46862 2.97988,-0.94036 4.43808,-1.10912 0.95215,-0.11019 3.9949,-0.10523 4.96355,0.008 1.8897,0.22108 2.80865,0.78045 2.88109,1.75375 0.0386,0.51825 -0.0759,0.86226 -0.40441,1.21567 -0.71403,0.76806 -1.86467,1.07182 -4.49636,1.18702 -3.16871,0.13871 -5.67761,-0.14029 -7.44514,-0.82793 l -0.45775,-0.17808 -0.44988,0.22849 c -1.44064,0.73171 -3.00696,1.95316 -4.03058,3.14313 -2.86181,3.32689 -3.15037,6.9708 -0.72788,9.19162 0.61272,0.56172 0.9497,0.78737 1.78091,1.19259 2.21943,1.08197 5.43665,1.55459 9.42052,1.3839 2.95779,-0.12672 4.9465,-0.47469 6.67331,-1.16762 1.64133,-0.65864 2.75762,-1.57194 3.74108,-3.06081 0.37429,-0.56664 0.54833,-0.69373 0.95004,-0.69373 0.23787,0 0.3621,0.0465 0.54252,0.2032 0.20092,0.17445 0.23227,0.24597 0.22162,0.50555 -0.0466,1.13621 -2.23883,3.59781 -4.43131,4.97586 -2.24546,1.41134 -4.73385,2.25462 -7.60446,2.577 -1.18365,0.13293 -3.61742,0.13434 -4.70536,0.003 z m 7.90963,-19.16967 c 0.47518,-0.0668 1.50109,-0.40568 1.50109,-0.49588 0,-0.0245 -0.25246,-0.0996 -0.56103,-0.16675 -0.30856,-0.0672 -0.60988,-0.13832 -0.6696,-0.15815 -0.0597,-0.0198 -0.59722,-0.0637 -1.19444,-0.0975 -1.23675,-0.0701 -3.08815,0.0147 -4.02261,0.18417 -0.79276,0.14377 -1.73241,0.39168 -1.73241,0.45707 0,0.0488 0.42461,0.13728 1.30302,0.27142 0.55569,0.0849 4.78073,0.0893 5.37598,0.006 z"
     id="path3565" />
  <text
     xml:space="preserve"
     style="font-style:normal;font-variant:normal;font-weight:normal;font-stretch:normal;font-size:42.6667px;line-height:1.25;font-family:Codystar;-inkscape-font-specification:Codystar;font-variant-ligatures:normal;font-variant-caps:normal;font-variant-numeric:normal;font-variant-east-asian:normal;fill:#000000;fill-opacity:1;stroke:#000000;stroke-width:1.37953;stroke-miterlimit:4;stroke-dasharray:none;stroke-opacity:1"
     x="187.9202"
     y="142.00066"
     id="text895-2-5"><tspan
       sodipodi:role="line"
       id="tspan3585"
       x="187.9202"
       y="142.00066">IO</tspan></text>
</svg>
